Coordinates
version=1
nRows=4
nColumns=114
inDegrees=yes

Units are S.I. units (second, meters, Newtons, ...)
If the header above contains a line with 'inDegrees', this indicates whether rotational values are in degrees (yes) or radians (no).

endheader 
time	pelvis_tilt	pelvis_list	pelvis_rotation	pelvis_tx	pelvis_ty	pelvis_tz	hip_flexion_l	hip_adduction_l	hip_rotation_l	hip_flexion_r	hip_adduction_r	hip_rotation_r	knee_angle_l	knee_angle_r	ankle_angle_l	ankle_angle_r	subtalar_angle_l	subtalar_angle_r	mtp_angle_l	mtp_angle_r	lumbar_extension	lumbar_bending	lumbar_rotation	arm_flex_l	arm_add_l	arm_rot_l	arm_flex_r	arm_add_r	arm_rot_r	elbow_flex_l	elbow_flex_r	pro_sup_l	pro_sup_r	addbrev_l/activation	addlong_l/activation	addmagDist_l/activation	addmagIsch_l/activation	addmagMid_l/activation	addmagProx_l/activation	bflh_l/activation	bfsh_l/activation	edl_l/activation	ehl_l/activation	fdl_l/activation	fhl_l/activation	gaslat_l/activation	gasmed_l/activation	glmax1_l/activation	glmax2_l/activation	glmax3_l/activation	glmed1_l/activation	glmed2_l/activation	glmed3_l/activation	glmin1_l/activation	glmin2_l/activation	glmin3_l/activation	grac_l/activation	iliacus_l/activation	perbrev_l/activation	perlong_l/activation	piri_l/activation	psoas_l/activation	recfem_l/activation	sart_l/activation	semimem_l/activation	semiten_l/activation	soleus_l/activation	tfl_l/activation	tibant_l/activation	tibpost_l/activation	vasint_l/activation	vaslat_l/activation	vasmed_l/activation	addbrev_r/activation	addlong_r/activation	addmagDist_r/activation	addmagIsch_r/activation	addmagMid_r/activation	addmagProx_r/activation	bflh_r/activation	bfsh_r/activation	edl_r/activation	ehl_r/activation	fdl_r/activation	fhl_r/activation	gaslat_r/activation	gasmed_r/activation	glmax1_r/activation	glmax2_r/activation	glmax3_r/activation	glmed1_r/activation	glmed2_r/activation	glmed3_r/activation	glmin1_r/activation	glmin2_r/activation	glmin3_r/activation	grac_r/activation	iliacus_r/activation	perbrev_r/activation	perlong_r/activation	piri_r/activation	psoas_r/activation	recfem_r/activation	sart_r/activation	semimem_r/activation	semiten_r/activation	soleus_r/activation	tfl_r/activation	tibant_r/activation	tibpost_r/activation	vasint_r/activation	vaslat_r/activation	vasmed_r/activation	
          3.34000000	          9.53898707	          2.53232580	        -28.96351296	         -1.20063758	          0.94788264	         -0.16070577	         15.08977484	        -11.91896390	          5.28085870	        -11.11449575	        -22.11988317	         -5.30602973	         20.99440259	         56.61921213	         -7.72206203	        -37.59317748	          2.05271994	        -30.67128610	        -21.99306632	         -5.50239354	         25.44486717	          2.70351920	        -20.64372853	        -36.09952343	        -25.33915326	       -502.82355097	         79.10534924	        -19.39935516	        -82.74358168	         82.93998482	        154.61416004	         36.13355269	         89.19371435	          0.05300352	          0.38288617	          0.01003852	          0.01002071	          0.01198391	          0.26595023	          0.28503293	          0.20358148	          0.06552443	          0.03718771	          0.02141103	          0.02627408	          0.47452616	          0.76251577	          0.04436437	          0.04674498	          0.01006742	          0.09669080	          0.07379814	          0.10041884	          0.04613594	          0.07307880	          0.05384694	          0.29343179	          0.25225583	          0.13191264	          0.41303464	          0.85886692	          0.78466311	          0.40811119	          0.38421068	          0.04493315	          0.01009937	          0.14071861	          0.11753796	          0.08589157	          0.03635766	          0.07020780	          0.17785481	          0.08595996	          0.12582150	          0.25361087	          0.01054193	          0.01282890	          0.06448000	          0.15188931	          0.09233830	          0.61005320	          0.20321334	          0.05751319	          0.07016165	          0.06520686	          0.14230551	          0.13375467	          0.02220361	          0.08941245	          0.10549152	          0.01008618	          0.01012546	          0.01300605	          0.01080606	          0.03478219	          0.09059908	          0.22453990	          0.32089421	          0.06132592	          0.05358506	          0.03968981	          0.38367464	          0.14787050	          0.40709466	          0.14061940	          0.35427283	          0.09395877	          0.05393645	          0.51423219	          0.14150804	          0.02072433	          0.02141067	          0.02233148	
          3.35000000	          9.01528899	          1.43024660	        -24.83810910	         -1.18579087	          0.95627254	         -0.16342956	         16.18223912	        -12.46693967	          7.64459476	        -12.54616444	        -19.06050628	         -7.08189928	         21.36585959	         55.68518000	         -9.19316175	        -35.53629096	          4.86500973	        -24.61220644	        -23.38317197	         -3.75810210	         24.43665915	         -0.68148650	        -14.94596360	        -25.54592277	        -29.12539470	       -479.46375885	         83.47966239	        -22.73516366	        -94.51193253	        104.70739839	        159.76362644	         37.12093793	         88.08007457	          0.04417961	          0.31909405	          0.01002193	          0.01001225	          0.01006273	          0.33304683	          0.39014595	          0.51084916	          0.12454971	          0.03112070	          0.01785702	          0.02190018	          0.49250103	          0.78588170	          0.27399873	          0.47436245	          0.01010405	          0.08057651	          0.06150051	          0.08371381	          0.03844957	          0.06090795	          0.18375543	          0.45646685	          0.21022230	          0.25702866	          0.52122067	          0.93057260	          0.86745408	          0.41936259	          0.79462602	          0.03744571	          0.01012119	          0.11726924	          0.13077233	          0.09778606	          0.03029996	          0.05850721	          0.14821258	          0.07163380	          0.13393980	          0.21141971	          0.01028237	          0.01092106	          0.05668991	          0.12705546	          0.07710274	          0.80670858	          0.42042848	          0.04801955	          0.05848298	          0.05435030	          0.11860189	          0.11146973	          0.01850526	          0.07451116	          0.08791106	          0.01007697	          0.01006229	          0.01085198	          0.03457915	          0.02900057	          0.07550248	          0.18721904	          0.61406867	          0.05111065	          0.04465612	          0.03308318	          0.59805429	          0.12322810	          0.66528241	          0.17149207	          0.29525866	          0.07829933	          0.04496198	          0.42853507	          0.11792613	          0.01727096	          0.01784242	          0.01860996	
          3.36000000	          8.66195903	          0.20630180	        -20.68473787	         -1.17161142	          0.96412780	         -0.16705727	         17.42222912	        -13.03141057	          9.24622553	        -13.69037782	        -16.10445768	         -8.66774809	         22.09005325	         55.16680584	        -10.69726724	        -32.12408567	          7.31488640	        -16.69464645	        -24.47494839	         -2.86662756	         22.97078079	         -3.64276047	         -9.79267958	        -17.11330676	        -32.71287434	       -449.06504887	         88.68730650	        -26.08918942	        -99.85640232	        113.58205265	        162.07652360	         42.18711968	         88.23603938	          0.03682571	          0.26591962	          0.01001198	          0.01000751	          0.01002369	          0.27770605	          0.55667061	          0.42573998	          0.12029144	          0.02597185	          0.01489883	          0.01825599	          0.46356498	          0.81397656	          0.26071303	          0.48653320	          0.01002201	          0.06714793	          0.05125254	          0.06978029	          0.03204429	          0.05076537	          0.15316846	          0.46190717	          0.17519307	          0.37983679	          0.62221633	          0.91677017	          0.77743634	          0.37624945	          0.78349012	          0.03120647	          0.01007254	          0.13579658	          0.10900339	          0.08148964	          0.02525248	          0.04875683	          0.12351075	          0.05969541	          0.28395283	          0.49765161	          0.01022355	          0.01009251	          0.08694367	          0.19191318	          0.07251189	          0.93541549	          0.56881402	          0.04007563	          0.04874640	          0.04529483	          0.09884488	          0.09289705	          0.01542346	          0.06209339	          0.07326062	          0.01003721	          0.01003804	          0.01002740	          0.02959966	          0.02418152	          0.06292159	          0.61270889	          0.78331483	          0.04260146	          0.04416021	          0.02757682	          0.72567579	          0.12848408	          0.88748103	          0.19017479	          0.58812687	          0.06524974	          0.03748241	          0.54556173	          0.09827455	          0.01439326	          0.01486888	          0.01550872	
          3.37000000	          8.52459665	         -1.17325343	        -16.54201651	         -1.15827415	          0.97167110	         -0.17142935	         18.70254570	        -13.67209930	          9.81449820	        -14.49393320	        -13.16186858	        -10.04282124	         23.11516959	         55.15415611	        -12.31861646	        -28.32653859	          8.99473559	         -9.12514416	        -25.30144620	         -2.51484743	         21.00387934	         -6.08652175	         -5.07410622	         -7.11604762	        -36.94436791	       -415.56483088	         93.29870264	        -29.81690611	        -91.81946789	        112.03013339	        161.82392623	         44.48225937	         88.98088342	          0.03070034	          0.22161320	          0.01001997	          0.01001103	          0.01005696	          0.41195441	          0.69208023	          0.35479651	          0.10025363	          0.02166150	          0.01243156	          0.01521857	          0.38638658	          0.67878039	          0.21737024	          0.59899888	          0.01024033	          0.05595751	          0.04271267	          0.05816036	          0.02670675	          0.04231220	          0.12765990	          0.38519628	          0.14599927	          0.47727701	          0.68817940	          0.76966343	          0.64787274	          0.31383512	          0.65292513	          0.02600874	          0.01009927	          0.19200571	          0.09086569	          0.06790971	          0.02104556	          0.04063196	          0.10292607	          0.04974707	          0.23683313	          0.41473690	          0.01011587	          0.01007246	          0.07262279	          0.16005830	          0.14297074	          0.91008146	          0.58974421	          0.15170685	          0.04063208	          0.03775023	          0.08237610	          0.07741739	          0.01285595	          0.05174525	          0.06105194	          0.01006343	          0.01004018	          0.01003062	          0.08077662	          0.02016565	          0.05243719	          0.51062222	          0.73917195	          0.03550837	          0.03680250	          0.02298747	          0.66714960	          0.10707213	          0.85260533	          0.21078050	          0.49012163	          0.05437502	          0.03124927	          0.53548124	          0.08189736	          0.01199558	          0.01239099	          0.01292445	
